<svg width="133" height="107" viewBox="0 0 133 107" fill="none" xmlns="http://www.w3.org/2000/svg" class="lines">
<path d="M127.2 44.4C127.2 55.4 122.7 65.4 115.5 72.6C108.3 79.8 98.5 84.2 87.6 84.3C100.5 75.7 109 61 109 44.4C109 31.2 103.7 19.2 95 10.6C92.8 8.40001 90.3 6.30001 87.7 4.60001C109.5 4.70001 127.2 22.5 127.2 44.4Z" stroke="white" stroke-width="3" stroke-miterlimit="10" stroke-linecap="round" stroke-linejoin="round"/>
<path d="M96.5 102.3L66.8 44.3" stroke="white" stroke-width="3" stroke-miterlimit="10" stroke-linecap="round" stroke-linejoin="round"/>
<path d="M66.8 44.3L55.5 66.4" stroke="white" stroke-width="3" stroke-miterlimit="10" stroke-linecap="round" stroke-linejoin="round"/>
<path d="M87.2 4.60001L66.8 44.3" stroke="white" stroke-width="3" stroke-miterlimit="10" stroke-linecap="round" stroke-linejoin="round"/>
<path d="M66.8 44.3L46.4 4.60001" stroke="white" stroke-width="3" stroke-miterlimit="10" stroke-linecap="round" stroke-linejoin="round"/>
<path d="M5.5 102.3V4.60001" stroke="white" stroke-width="3" stroke-miterlimit="10" stroke-linecap="round" stroke-linejoin="round"/>
<path d="M55.5 66.4L23.8 4.6L5.5 4.5L46.4 84.2L55.5 66.4Z" stroke="white" stroke-width="3" stroke-miterlimit="10" stroke-linecap="round" stroke-linejoin="round"/>
</svg>
